<?xml version="1.0" encoding="iso-8859-1"?>
<!-- Generator: Adobe Illustrator 19.0.0, SVG Export Plug-In . SVG Version: 6.00 Build 0)  -->
<svg version="1.1" id="Layer_1" xmlns="http://www.w3.org/2000/svg" xmlns:xlink="http://www.w3.org/1999/xlink" x="0px" y="0px"
	 viewBox="0 0 511.983 511.983" style="enable-background:new 0 0 511.983 511.983;" xml:space="preserve">
<g>
	<path style="fill:#434A54;" d="M127.99,511.983c-5.891,0-10.664-4.781-10.664-10.672v-10.656c0-5.891,4.773-10.672,10.664-10.672
		c5.89,0,10.663,4.781,10.663,10.672v10.656C138.653,507.202,133.88,511.983,127.99,511.983z"/>
	<path style="fill:#434A54;" d="M383.982,511.983c-5.891,0-10.656-4.781-10.656-10.672v-10.656c0-5.891,4.766-10.672,10.656-10.672
		s10.655,4.781,10.655,10.672v10.656C394.637,507.202,389.872,511.983,383.982,511.983z"/>
</g>
<path style="fill:#AC92EB;" d="M405.324,477.311c0,11.734-9.608,21.344-21.342,21.344H127.99c-11.734,0-21.336-9.609-21.336-21.344
	V21.335C106.654,9.601,116.256,0,127.99,0h255.992c11.733,0,21.342,9.602,21.342,21.335L405.324,477.311L405.324,477.311z"/>
<rect x="106.659" y="277.321" style="fill:#967ADC;" width="298.67" height="63.998"/>
<g>
	<polygon style="fill:#E6E9ED;" points="106.654,42.662 159.988,85.332 351.982,85.332 405.324,42.662 	"/>
	<polygon style="fill:#E6E9ED;" points="405.324,277.319 368.576,222.211 143.403,222.196 106.654,277.319 	"/>
</g>
<g>
	<polygon style="fill:#CCD1D9;" points="106.654,42.662 106.654,277.319 149.325,213.321 157.966,80.661 	"/>
	<polygon style="fill:#CCD1D9;" points="405.324,42.662 405.324,277.319 362.638,213.321 354.013,80.661 	"/>
</g>
<rect x="159.989" y="85.331" style="fill:#5D9CEC;" width="191.99" height="127.99"/>
<path style="fill:#4A89DC;" d="M373.232,211.883L362.607,84.442c-0.453-5.523-5.078-9.78-10.625-9.78H159.988
	c-5.546,0-10.171,4.257-10.632,9.78l-10.664,128.004c-0.25,2.969,0.758,5.906,2.781,8.109c2.016,2.188,4.867,3.438,7.852,3.438
	h213.313c0,0,0.016,0,0.031,0c5.875,0,10.656-4.781,10.656-10.672C373.326,212.836,373.295,212.352,373.232,211.883z
	 M160.918,202.665l8.883-106.668H342.17l8.875,106.668H160.918z"/>
<polygon style="opacity:0.1;fill:#FFFFFF;enable-background:new    ;" points="249.377,202.665 201.675,202.665 262.588,95.996 
	310.297,95.996 "/>
<g>
	<path style="fill:#FFCE54;" d="M370.201,301.786c4.156,4.156,4.156,10.906,0,15.078c-4.188,4.172-10.938,4.172-15.094,0
		s-4.156-10.922,0-15.078C359.263,297.614,366.013,297.614,370.201,301.786z"/>
	<path style="fill:#FFCE54;" d="M146.2,301.786c4.164,4.156,4.164,10.906,0,15.078c-4.172,4.172-10.922,4.172-15.086,0
		c-4.163-4.172-4.163-10.922,0-15.078C135.278,297.614,142.028,297.614,146.2,301.786z"/>
	<path style="fill:#FFCE54;" d="M188.863,301.786c4.163,4.156,4.163,10.906,0,15.078c-4.164,4.172-10.922,4.172-15.086,0
		s-4.164-10.922,0-15.078C177.941,297.614,184.699,297.614,188.863,301.786z"/>
</g>
<path style="fill:#656D78;" d="M202.651,255.991c-5.891,0-10.664-4.781-10.664-10.672v-42.655c0-5.891,4.773-10.671,10.664-10.671
	s10.672,4.781,10.672,10.671v42.655C213.323,251.21,208.542,255.991,202.651,255.991z"/>
<g>
	<path style="fill:#ED5564;" d="M202.651,159.994c-17.64,0-31.999,14.358-31.999,31.999c0,17.64,14.359,31.999,31.999,31.999
		c17.647,0,31.999-14.359,31.999-31.999C234.65,174.353,220.299,159.994,202.651,159.994z"/>
	<path style="fill:#ED5564;" d="M277.329,255.991h-21.344c-5.89,0-10.663-4.781-10.663-10.672s4.773-10.656,10.663-10.656h21.344
		c5.874,0,10.655,4.766,10.655,10.656S283.203,255.991,277.329,255.991z"/>
	<path style="fill:#ED5564;" d="M330.639,255.991h-21.312c-5.906,0-10.688-4.781-10.688-10.672s4.781-10.656,10.688-10.656h21.312
		c5.906,0,10.687,4.766,10.687,10.656S336.546,255.991,330.639,255.991z"/>
</g>
<path style="fill:#434A54;" d="M330.639,319.989h-21.312c-5.906,0-10.688-4.781-10.688-10.672s4.781-10.656,10.688-10.656h21.312
	c5.906,0,10.687,4.766,10.687,10.656S336.546,319.989,330.639,319.989z"/>
<g>
</g>
<g>
</g>
<g>
</g>
<g>
</g>
<g>
</g>
<g>
</g>
<g>
</g>
<g>
</g>
<g>
</g>
<g>
</g>
<g>
</g>
<g>
</g>
<g>
</g>
<g>
</g>
<g>
</g>
</svg>
