<?xml version="1.0" encoding="iso-8859-1"?>
<!-- Generator: Adobe Illustrator 19.0.0, SVG Export Plug-In . SVG Version: 6.00 Build 0)  -->
<svg version="1.1" id="Layer_1" xmlns="http://www.w3.org/2000/svg" xmlns:xlink="http://www.w3.org/1999/xlink" x="0px" y="0px"
	 viewBox="0 0 512 512" style="enable-background:new 0 0 512 512;" xml:space="preserve">
<g>
	<circle style="fill:#A0EBFF;" cx="256" cy="256" r="256"/>
	<rect x="98.253" y="240.292" style="fill:#C2D64A;" width="192.804" height="159.744"/>
	<rect x="196.716" y="240.292" style="fill:#A4B830;" width="94.316" height="159.744"/>
	<path style="fill:#A33000;" d="M110.623,233.196c-8.648,0-15.657,7.009-15.657,15.657v139.336l0.041,0.046
		c0.051,2.365,0.159,5.821,0.307,5.115c1.5,7.081,7.777,12.401,15.304,12.401l187.848-0.01v-5.719V395.3v-29.373v-6.922V233.196
		H110.623z M291.036,395.3l-180.413,0.01c-4.762,0-7.885-1.336-7.885-6.554c0-8.812,0-9.062,0-17.039
		c0-4.321,2.714-5.801,7.885-5.801l180.413,0.01V395.3z"/>
	<path style="fill:#D94000;" d="M110.623,222.756c-8.648,0-15.657,7.009-15.657,15.657v126.213c0,1.116,0.128,2.202,0.348,3.251
		c1.5-7.081,7.777-12.401,15.304-12.401l187.848,0.01V222.756H110.623z"/>
	<path style="fill:#A33000;" d="M265.236,284.216c-11.146,0-20.183,9.037-20.183,20.183c0,11.146,9.037,20.183,20.183,20.183h43.039
		v-40.361h-43.039V284.216z"/>
	<path style="fill:#D94000;" d="M265.236,273.782c-11.146,0-20.183,9.037-20.183,20.183c0,11.146,9.037,20.183,20.183,20.183h43.039
		v-40.361h-43.039V273.782z"/>
	<circle style="fill:#FFF466;" cx="264.607" cy="295.316" r="12.058"/>
	<path style="fill:#FDC00F;" d="M404.285,235.5c0,8.929-7.24,16.169-16.169,16.169H218.071c-8.929,0-16.169-7.24-16.169-16.169
		V127.811c0-8.929,7.24-16.169,16.169-16.169h170.051c8.929,0,16.169,7.24,16.169,16.169V235.5H404.285z"/>
	<path style="fill:#FFF466;" d="M404.285,230.108c0,8.929-7.24,16.169-16.169,16.169H218.071c-8.929,0-16.169-7.24-16.169-16.169
		V122.424c0-8.929,7.24-16.169,16.169-16.169h170.051c8.929,0,16.169,7.24,16.169,16.169v107.684H404.285z"/>
	<path style="fill:#FDC00F;" d="M388.116,106.255h-85.023v140.027h85.023c8.929,0,16.169-7.24,16.169-16.169V122.424
		C404.285,113.495,397.051,106.255,388.116,106.255z"/>
	<rect x="201.574" y="205.466" style="fill:#2C5871;" width="202.383" height="21.335"/>
	<rect x="303.104" y="205.466" style="fill:#0F303F;" width="100.884" height="21.335"/>
	<rect x="217.293" y="122.563" style="fill:#D94000;" width="38.932" height="38.932"/>
	<rect x="271.565" y="122.563" style="fill:#2C5871;" width="115.927" height="15.718"/>
	<path style="fill:#EB9900;" d="M415.877,324.582c-4.408-18.857-21.289-32.916-41.487-32.916c-20.198,0-37.079,14.06-41.487,32.916
		h-1.157v9.728c0,23.552,19.092,42.65,42.65,42.65c23.552,0,42.65-19.092,42.65-42.65v-9.728L415.877,324.582L415.877,324.582z"/>
	<circle style="fill:#FFF466;" cx="374.374" cy="324.608" r="42.65"/>
	<path style="fill:#FDC00F;" d="M374.385,281.933v85.294c23.552,0,42.65-19.092,42.65-42.65
		C417.034,301.02,397.942,281.933,374.385,281.933z"/>
	<path style="fill:#EB9900;" d="M374.385,360.223c-19.651,0-35.64-15.99-35.64-35.64c0-19.651,15.99-35.64,35.64-35.64
		c19.656,0,35.645,15.99,35.645,35.64C410.03,344.233,394.04,360.223,374.385,360.223z M374.385,293.806
		c-16.968,0-30.771,13.804-30.771,30.771c0,16.968,13.809,30.776,30.771,30.776c16.973,0,30.776-13.809,30.776-30.776
		C405.161,307.61,391.357,293.806,374.385,293.806z"/>
	<path style="fill:#EB9900;" d="M380.283,332.718c0-0.799-0.323-1.475-0.968-2.022c-0.645-0.553-1.618-1.121-2.908-1.71v7.096
		C378.993,335.642,380.283,334.52,380.283,332.718z M388.864,332.288c0,3.021-1.091,5.448-3.277,7.286
		c-2.186,1.833-5.243,2.934-9.18,3.292v5.842H372.5v-5.729c-4.639-0.097-8.704-0.911-12.201-2.452V333
		c1.654,0.819,3.645,1.541,5.97,2.166c2.33,0.625,4.403,0.998,6.231,1.111v-8.837l-1.91-0.742c-3.763-1.485-6.431-3.092-7.997-4.833
		c-1.567-1.741-2.35-3.891-2.35-6.456c0-2.755,1.08-5.023,3.236-6.799s5.166-2.857,9.021-3.236v-4.362h3.907v4.25
		c4.352,0.189,8.284,1.065,11.802,2.621l-2.678,6.671c-2.964-1.219-6.006-1.956-9.124-2.222v8.412
		c3.707,1.423,6.344,2.662,7.91,3.707c1.567,1.044,2.719,2.196,3.451,3.451C388.5,329.155,388.864,330.614,388.864,332.288z
		 M368.824,315.412c0,0.835,0.292,1.526,0.87,2.068c0.579,0.543,1.516,1.096,2.806,1.669v-6.697
		C370.048,312.806,368.824,313.795,368.824,315.412z"/>
</g>
<g>
</g>
<g>
</g>
<g>
</g>
<g>
</g>
<g>
</g>
<g>
</g>
<g>
</g>
<g>
</g>
<g>
</g>
<g>
</g>
<g>
</g>
<g>
</g>
<g>
</g>
<g>
</g>
<g>
</g>
</svg>
